<svg version="1.2" xmlns="http://www.w3.org/2000/svg" viewBox="0 0 925 362" width="925" height="362"><style>.a{fill:#fff}</style><path class="a" d="m7.4 59.8q1.6 0 7.8 0.8l3.6 0.3q0.7 0 2.2-0.2 1.5-0.1 2.4-0.1 3.2 0 4.1 2.5 2.6 7.6 4.6 11.4 2.1 3.7 6 7.2 10.7 8.9 26.7 8.9 9.2 0 17.3-3.3 8.2-3.4 13.3-9.8 5.9-7.4 6-17.9 0.3-11.6 0.3-43.5 0-1.4-0.3-3.7l-0.1-3.6-0.2-4.5q0-3.7 3.8-3.7 0.8 0 6.8 0.3 3.4 0.5 6.7 0.5 2.5 0 5.5-0.5 3.2-0.4 3.7-0.3 2.6 0.6 2.6 5.5 0 1.2-0.9 8.3-0.3 9.8-0.3 11.3l0.2 15.2 0.1 12.6q0 8.7-1 13.8-2.5 12.6-10.7 22.2-8.9 10.3-22.5 15.8-13.5 5.4-29 5.4-20.5 0-36.8-9.2-4.3-2.6-6.1-4l-5.9-4.4q-1.5-1.5-4.9-5.5-8.9-10.5-11.7-23.3v-1.8q0.1-0.9 0.9-1.3 1.7-1.4 5.8-1.4zm151.6-5.6q0-8.2 0.1-10.4 0.2-2.2 0.2-9.6 0-13.8-0.9-27.6v-1.1q0-2.9 1.5-3.5 1.2-0.3 1.3-0.3 0.2 0 1.6 0.3 4.2 0.9 8.8 0.9 2.2 0 3-0.2 1.3 0 3.7-0.6 2.5-0.6 4.1-0.6 4.3 0 4.3 4.9-0.3 36.8-0.3 41.3v4.6q0 8.1 1.2 13.6 2.1 10.3 8.6 15.9 5.4 4.5 15.6 6.7 12.2 2.7 24.8 2.7 10.2 0 19-1.5 14.5-2.2 20.8-8.9 7.4-8 7.4-26.9 0-3.3-0.3-28.2-0.3-16.6-0.3-18.8 0-2.4 0.7-3.4 1.1-1.4 4.2-1.4h17.5q2.8 0 4 0.8 2.1 1.3 2.1 6.2l-0.6 41q-0.1 14.9-1.9 23.8-1.8 8.8-7.2 15.6-4.7 6.3-12.3 10.1-7.5 3.7-18.8 6.7-19.8 4.7-37.4 4.7-15.4 0-28.7-3.2-15.4-3.7-25.6-10.9-12.8-9.2-17.2-21.3-3-8.2-3-21.4zm185.1 53.1q-2.1 0-3.6-1.3-1-1-1-2.4 0-0.7 0.4-2.5 0.6-1.8 0.6-6.1l0.2-46.3 0.1-11.7q0.2-2.5 0.2-11.6 0-6.7-0.3-12 0-1.2-0.6-3.4-0.6-2.5-0.6-4.6 0-1.4 0.3-2.2 0.7-2.1 3.4-2.1 0.5 0 3.1 0.4 5.7 0.8 9.5 0.8 2.7 0 3.4-0.2 2.1 0 5.4-0.7 3.5-0.8 4.4 2.1 0.2 0.5-0.1 3.1-0.9 4.9-0.9 14.8v8.6q0 16.6 0.1 21.2 0.2 3.5 0.2 15.5 0 3.8-0.6 9.3 0 0.3-0.3 4.8-0.3 2.6 0.9 3.8 0.7 0.8 2.2 0.8 0.8 0 1.7-0.2 1-0.3 1.9-0.6 1-0.3 1.2-0.3 2.6-0.3 2.9-0.3 1.2 0 3.2 0.2 2 0.1 2.9 0.1 2.7 0.2 11.9 0.2l23.7-0.2q28.8 0 37-0.1l12-0.2q1.5 0 3.9 0.3 2.6 0.3 3.8 0.3 0.8 0 3-0.6 2.4-0.6 3-0.6 3.2 0 3.2 4.2 0 0.4-0.3 2.5 0 0.3-0.3 2-0.3 1.4-0.6 3.1-0.1 1.5-0.1 2.6 0 1.7 0.3 3.2 0.6 1.6 0.6 2.8 0.1 1.6-1.1 2.3-1 0.8-2.8 0.8l-1.3-0.2q-6.8-1-16.2-1-1.3 0-13.5 0.3-21.7 0.3-24.3 0.3l-24.5-0.2q-5.5-0.1-24.4-0.1h-6.5q-2.4 0-18.1-0.3-1.3-0.1-4.4 0.7-2.7 0.9-4.2 0.9zm162.4-94.8q-0.8-5-0.8-7.3 0-2.2 0.8-3.4l0.6-0.6q1.2-0.7 3.2-0.7 1.9 0 5.7 0.9 3.3 0.7 4.6 0.7 0.5 0 2.7 0.2 2.4 0.1 3.3 0 0.4 0 2.5-0.5 2.2-0.6 3-0.6 1.6 0 2.8 1.7 0.7 1.7 0.7 3.5 0 0.5-0.7 6.7-0.6 2.5-0.6 3.9-0.6 9.9-0.6 25.2 0 2.4 0.3 21.7l0.4 23.4-0.1 6.8q0 0.5 0.3 4.9 0.6 3 0.6 4.5 0 1-0.5 1.9-1.1 1.8-4.6 1.8-1 0-3.2-0.3-2.3-0.3-2.5-0.3-4.2-0.6-7.3-0.6-2.2 0-2.8 0.1-0.2 0-2.3 0.5-1.9 0.3-2.6 0.3-2.3 0-3-1.6-0.3-0.9-0.3-2 0-1.8 0.1-2.2 1.1-6.8 1.1-19.1 0-2.1-0.3-17.8-0.3-12.8-0.3-28.8 0-0.9 0.3-6.9 0-0.3 0.1-4.6 0.3-4.4 0.2-6.6 0-1.1-0.8-4.8zm53.2 82.7q2.1-2.1 2.2-2.4l57.1-85.8q2.4-3.5 7.6-4.7 5.4-1.2 15.6-1.4 5.5 0 6.8-0.1 0.8-0.2 3.6-0.2 2.4 0 3.5 0.5 5.1 1.5 10 9.9 27.9 46.6 61.1 91.3 1.2 1.6 1.2 2.8 0 0.8-0.6 1.2-0.6 0.3-1.6 0.3-1.6 0-13.5 0.3-9.2 0-12.8-3-3.1-2.5-4.1-6.7-2-4.1-3.4-5.9-1.4-1.9-3.8-2.4-2.5-0.4-5.3-0.4-3.9 0-8.8 0.6-5.3 0.4-6.5 0.4-10.7 0.3-24.2 0.3l-24.2-0.1q-5.5-0.2-24.3-0.2-3.4 0-5.3 2-2 1.7-4.3 6.3-2 4-3.6 6-1.5 1.8-4 2.5-4 1.2-8.6 1.2-2.7 0-8-0.5-4-0.4-6.1-0.4-1.4 0-2.1-0.7-1.2-1.2 0.3-3.3 1.5-2.2 6.1-7.4zm50-25.9q0.9 0.3 2.1 0.3 2.1 0 2.6-0.1 17.4-2.1 29-2.1 5.9 0 12 0.5 0.6 0 1.8 0.3 1.2 0.1 1.5 0.1 8.3 1.2 10.4 1.2 5.3 0 6-2.5v-0.3q0-1.5-1.3-2.8-10.1-13-18.7-26.2l-2.1-4q-4.6-9-8-13.5-3.3-4.6-5.5-3.7-1.6 0.6-5.3 8.6l-1.8 3.4-7.7 12.1q-6.8 10.2-16.3 22.2-1.4 1.8-1.7 3.1 0 0.8 0.5 1.7 0.7 1.2 2.5 1.7zm138.3 37.6q-2.2 0-3.1-1.2-1.4-1.5-1.4-5.2 0-0.4 0.3-4.9 0-0.6 0-1.2 0.2-0.6 0.2-1 0.1-0.5 0.1-0.8 0-0.3 0-0.4 0-64.1-0.1-82.5 0-6.1 1.9-7.6 1.2-0.9 3.3-0.9 0.1 0 4.9 0.6 3.8 0.5 7.4 0.5 3.1 0 4-0.2 3.6-0.3 3.9-0.3h0.8q5.4 0.8 15 8.6 3.3 2.7 5.1 3.9 16.5 11.6 96.4 66.6 3 2.1 4.8 3.9 2.1 2.9 3.7 2.9 0.7 0 1.5-0.8 0.4-0.8 0.4-1.5l-0.1-1.2q0-0.2-0.5-0.9-0.3-0.9-0.4-1.6-0.6-1.2-0.6-3.5l0.1-1.7q0.5-15.2 0.5-30.3l-0.2-36.4q0-0.9-0.3-2.9-0.1-2.1-0.1-2.7 0-2.8 3.4-2.8 0.2 0 0.5 0.1 0.3 0 0.8 0.2 0.8 0 1.5 0 4.8 0.6 7.9 0.6 3.1 0 8-0.8 1.5-0.3 2.7-0.3 4 0 4 4.2l-0.3 2.7q-1.3 6.6-1.3 16.1 0 1.7 0.3 11.5 0.2 9.8 0.2 10.9l0.2 14.9q0.3 26.4 0.3 29.7l-0.2 7.4q0 0.3 0.6 2.7 0.8 2.2 0.5 2.9-0.6 2.8-5.1 2.8l-8-0.9q-7.4-0.2-8.6-0.2-5.5 0-13.3 0.5-5.8 0.6-12.5-4l-4.2-2.8-20.1-13.8q-14.4-9.9-46.3-31l-28.5-19.1q-0.8-0.5-2.7-2.7-1.9-2.2-2.8-2.2-1.4 0-1.1 3.8 0.8 16.6 0.8 35.8 0 0.7-0.3 9-0.3 8.3-0.3 9.7 0 8 1.3 13 0 0.5 0 0.9 0.2 0.5 0.2 0.8 0.1 0.1 0.1 0.3 0 2.3-3.4 2.3l-6.1-0.1q-5.6-0.3-6.2-0.3-4.5 0-7.9 0.7-0.4 0.2-1.6 0.2zm-576 161.2l4.1 4.3q0.7 0.7 0.6 1.3-0.1 0.6-1.5 0.6h-22.1q-5 0-7.3-0.9-2.5-1-6.5-5.3l-23.1-25.1q-6-6.8-10.6-8.3-3.2-1.1-8.9-0.9h-11.6q-4 0.1-18.5 0.1l-10.1 0.2q-0.5 0-2.5-0.2-2-0.3-3.3-0.3-2.2 0-3 0.8-0.4 0.4-0.4 1.8 0.1 1.3 0.1 6l0.3 9.4q0.3 15.7 0.3 18.1 0.3 4.3-2 5.2-0.2 0.1-0.9 0.1-0.3 0-2.1-0.4-4.8-1-8.9-1-4.2 0-7.9 0.8-2.2 0.5-3.2 0.5-3.8 0-3.8-3.3 0-0.6 0.3-2.3 0.3-2 0.3-2.7v-13.4-26.5-53.3q0-1.8 0.6-2.4 0.8-0.7 2.7-0.7 28.6-0.6 48.5-0.6 20.5 0 53.2 0.7 14.5 0.3 21.8 2.1 12 3.1 18.5 10.7 6.1 7.3 6.1 17.6 0 8.5-4 15.3 0 1.4-2.2 3.6l-2.7 2.7q-2.8 2.8-6.4 4.9-2.8 1.7-9.2 3.7-0.3 0.1-4.4 0.6-3.7 0.4-4 1.6v0.3q0 0.6 0.4 1 1.6 2.3 5.1 4.9 0.8 0.5 3.1 2.5l3.1 3.5 4.9 5.2q5.6 6 17.1 17.5zm-66.1-53.3q15.9 0 25.8-2.4 4.5-1 7.2-2.7 3.8-2.5 4.4-5.7 0.2-0.5 0.2-1.8 0-4.8-4.3-7.7-3.6-2.7-10.3-3.8-8-1.1-20-1.1h-4.5-25.9-13.1-7.7-1.2l-4.3-0.2-2.4-0.1q-0.9 0-1.6 0.4-1.1 0.6-1.1 3.3 0 1.2 0.2 3.1 0.3 1.9 0.3 2.4 0.1 3.1 0.1 13.6 0 2.4 3.3 2.4 29.4 0 37.8 0.1h6.7q2.2 0.2 10.4 0.2zm123.3 57.9q-18.1-5.8-32.9-21.3-14.8-15.4-14.4-31.4 0-11 6.4-20.5 15.3-22.4 57-30.6 16-3.1 32.5-3.1 19.1 0 37.1 4 34.8 7.9 51.2 27.8 9.6 11.4 9.6 25.5 0 13.1-8.5 23.7-7.8 10.1-24.1 18.4-25.9 12.7-61.6 13.7-1.7 0.1-7.6 0.1-25.5 0-44.7-6.3zm-13.3-67.4q-6.3 7.3-6.3 16.3 0 9.4 7.5 18.1 7.7 8.6 18.2 12.8 21.4 8.7 45.4 8.7 17.5 0 32.8-5.2 12.8-4.3 23.2-14.6 10.5-10.4 10.2-21 0-9-8-17-6.1-5.8-17.4-10.7-19.3-8-42.3-8-22.2 0-43 7.7-14.1 5.2-20.3 12.9zm321.7-8.8q-1.8-1.7-3.1-2.5-9.1-4.7-22.9-7.9-13.2-2.6-26.5-2.6-19.5 0-35.7 5.8-16.1 5.8-25.2 18.4-4.9 6.6-4.9 14.2 0 7.6 5.1 14.6 8.4 12 23.7 17.5 14.8 5.3 33.3 6.5 1.4 0.1 6.9 0.1 26 0 46.2-10.5 2.5-1.2 6.7-4.3 0.5-0.3 1.7-1.3 1.4-1.2 2.6-2 1.3-0.9 2.3-1.1 0.6 2.8 0.6 7.7 0 4.4-0.6 10.8l-0.3 4.5q0 1.4-0.6 2-1.7 2.7-12.4 5.4l-3.4 0.9q-9.5 3.1-20.5 4.7l-3.9 0.3q-2.9 0-3.8 0.2-9.7 0.7-15.3 0.7-14.4 0-30.4-3-6-1-7.6-1.5-5.6-1.4-7.3-2-37.2-11.6-47.8-35.2-1.9-4.7-2.6-7.1-0.8-4.2-0.8-6.7 0-11.9 7.3-22.4 1-1.2 2.1-2.7 1.2-1.5 1.8-2.2 0.5-0.7 0.8-1 8.2-8.9 18-14.1 23.7-13.3 58.8-14.7 5.3-0.5 7.5-0.5 0.9 0 4.8 0.3 2.7 0.3 3 0.3 2.3 0 3.1 0.2 3.5 0 4.6 0.1 8.9 0.6 22.7 3.9l3.7 0.9q3.1 0.6 3.7 0.8l7.4 2.3 3.3 1q2.6 0.6 3.7 2.4 0.6 1.2 0.6 3.4 0 0.7 0.3 6.7 0.3 8.6 0.3 9.9 0 3.6-1.8 4.2-2.1 0.4-9.2-5.4zm33.4 78.1q-0.4-0.3-0.7-0.7-0.9-1.1-0.9-3.6l0.1-2.5q0.5-8.6 0.5-17.4l-0.2-20.9q0-1.4 0.3-3.7l0.2-3.7q0-1.4-0.3-3.7-0.3-2.4-0.3-3.8l0.1-4.1q0.3-4.8 0.2-6.1-0.3-5-0.3-11.7v-7.7l0.1-3.3q0.2-0.7 0.2-3.3 0-1.9-0.2-2.3-0.3-2.4-0.3-2.7 0-4.2 3.9-4.2 1.2 0 1.6 0.2 4.6 0.9 9.7 0.9h6.1q1 0 2.8-0.6 1.8-0.6 2.1-0.6 0.9 0 1.9 1 1.2 1.2 1.2 3.6 0 1.3-0.6 4.3-0.6 3-0.6 3.5-0.2 0.9-0.2 3.9l0.2 7.6q0 4.4-0.5 6.7 0 0.4-0.1 1.1 0 0.6-0.2 1.1 0 0.3 0 0.4 0 2.8 2 2.8 1.3 0 3.2-1 6.7-3.4 12.8-5.3 5.1-1.8 17.8-5.5 11.1-3 32.4-10.7 16.9-6 21-7.4 12.7-4.3 18.4-4.9 6-0.8 13.1-0.8 1.3 0 13.2 0.3 6.5 0.5 13.1 0.5 7.2 0 11.8-0.6 1.5 0 2.1 0.1 0.3 1.8-4.1 3-0.5 0.1-4.3 1l-4.5 1.1q-3.6 1-16.9 5.9l-7.4 2.7-36.8 13.5-7.5 2.7-4.9 1.9q-1.9 0.9-5.7 2.4-0.3 0.1-4.2 0.8-5.2 0.8-6.7 2-1 0.9-1 1.6 0 1.2 1.8 2.2 1.7 1.1 4.6 2.3 2.8 1 3.1 1.1 17 10 47.2 29.7l23.3 15.5 4.6 3.1q10.2 7.2 15.7 8.7 1.8 0.6 2.7 1.2 1 0.6 1 1.7v0.2q0 0.6-9.2 0.6l-15.9-0.1q-10.1-0.3-10.4-0.2-6.6 0.3-12.7-2.6-6.1-3-15.4-10.1l-3.9-2.8q-6.5-5.1-26.9-17.8l-3.7-2.3q-3.4-2-16.5-11l-8.3-5.7q-5.6-4.6-8.9-4-3.7 0.7-8.3 3.2-2.6 1.4-4.9 2.4-2.6 0.9-3.4 1.3-0.9 0.6-4.9 1.7-0.1 0-1.3 0.1-1.2 0.2-1.8 0.3-0.6 0.2-1.6 0.5-0.9 0.2-1.5 1-0.5 0.6-0.8 1.6-0.1 0.3-0.1 1.5 0 1.5 0.4 3.7 0.2 0.5 0.2 2.4l-0.2 4.9q-0.1 1.5-0.1 6.7 0 1.3 0.3 10.8 0 0.3 0.3 3 0.6 3.7 0.6 6.2 0 5.3-3.6 5.3-0.9 0-2.2-0.4-1.5-0.4-3.3-0.4-0.9 0-2.6 0.1-1.8 0.1-2.7 0.1-0.2 0-2.2-0.2-2-0.3-2.7-0.3-1.2 0-1.5 0.1-0.1 0-1.3 0.4-1.1 0.3-2.3 0.6-1.1 0.2-1.9 0.2-0.9 0-1.5-0.3zm195.8-8l-0.3-0.3q-0.4-1.4-0.4-1.6-0.6-6.1-0.6-15.8 0-6.2 0.1-8 15.4 12.3 38.3 16.8 13.9 2.8 36.4 2.8h5.4q21.4-0.7 31.5-3.1 11.1-2.5 12.8-9.1 0.1-0.4 0.1-1.6 0-6.1-5.9-9.4-4-2.2-12.6-3.1-12.5-1-34.5-1.2-1.2 0-2.9 0-1.8-0.1-4.9-0.1-3-0.2-5.4-0.2-7.4-0.1-16.7-0.7-15.6-1.2-23.6-4.2-13.1-4.6-18.4-14.3-3.5-6.1-3.5-13 0-10.2 6.4-17.5 6.9-7.8 21.8-11.8 19.2-5.4 49.8-5.4h7.7q20.5 0.3 34.4 2.5 14 2.3 25.8 7.8 2.5 1.1 3.1 2.3 0.5 1.2 0.5 3.3-0.3 19.3-0.3 21.8-7.7-7.7-21.4-12.6-7-2.4-12.4-3.4-4.1-1.5-7.8-2.1-0.6-0.1-2.6-0.1h-5.1q-8.7-0.9-21.8-0.9-20.2 0-35.6 3.5-6.4 1.4-9.8 3.9-4.5 3.4-4.5 8 0 8.2 13.4 10.7 15.7 3 43.2 3.1 15.1 0.3 21.7 0.6 8.7 0.4 17.3 1.8 12.2 1.8 19.9 6.4 10.4 6.5 12.2 16.3 0.3 1.8 0.3 4 0 4-1.2 8.7-1.5 7.2-4.5 10.7-3.8 5.4-14.5 9.5-20.9 7.4-52 7.4-1.6 0-16.7-0.3-18.6-0.5-33.6-2.9-14.7-2.2-27.1-8.2-1.4-0.9-1.5-1z"/><path class="a" d="m232.7 345.9l0.2-0.2q0.2-0.2 0.7-0.2 0.1 0 0.7 0.1 0.8 0.2 2.7 0.2h32.3q1.4 0 2.2-0.2 0.4-0.1 0.8-0.1h0.2q0.6 0.1 0.7 0.6 0.1 0.2-0.1 0.7-0.2 0.5-0.2 0.6 0 0.1 0.2 0.6 0.2 0.5 0.1 0.7-0.1 0.7-1.5 0.6-2.5-0.2-7.6-0.2-19.7 0-29.6 0l-0.6 0.1q-1 0-1-0.9 0-0.2-0.2-0.8-0.1-0.7-0.1-1 0-0.4 0.1-0.6zm65.2 14.2l-0.1-0.1q-0.1-0.2-0.2-0.6-0.1-0.8-0.1-1 0-0.2 0.1-0.8 0-0.7 0-0.8 0.2-1.1 0.2-1.8 0-1.5 0-6.7 0-7.6 0-9.7 0-0.1 0-0.3 0-0.1-0.1-0.4 0-0.3 0-0.5-0.1-1-0.1-1.9 0-2.2 1.2-2.2l36.4 0.1q1 0 1.3 0.5 0.3 0.2 0.3 0.9l0.1 2.7q0 1-0.4 1.3-0.4 0.4-1.3 0.4-0.1 0-1.3-0.1-0.3-0.1-1.6-0.1h-1.7l-8.2-0.1h-16.1q-1 0-1.4 0.5-0.4 0.6-0.4 1.8l0.1 0.9q0 0.3 0 1.1-0.1 1.1 0.8 1.3 0.5 0.1 0.6 0.1 0.5 0 1.5-0.1 0.8-0.1 1.4-0.1l15-0.1h7.5l1.1-0.1q1.7-0.1 1.8-0.1 1.3 0 2 0.4 0.6 0.4 0.5 1.3l-0.3 3.1q0 0.3-0.2 0.5-0.1 0.2-0.5 0.2-9.2 0-27.5 0-1.2 0-2-0.2-0.3-0.2-0.7-0.2-0.6 0-0.9 0.5-0.2 0.5-0.2 1.3 0 0.7 0.1 1.6 0 0 0 0.4 0.1 0.5 0.1 0.7 0.1 0.3 0.4 0.6 0.3 0.2 0.8 0.2l29.4-0.1q0.9 0 1.2 0.2 0.3 0.2 0.3 0.8v1.1q-0.1 0.2 0.1 1.1 0.2 0.8 0.2 1.3 0 0.5-0.3 0.8-0.2 0.5-0.7 0.5-0.1 0-0.7-0.1-0.5-0.1-0.7-0.1h-1q-0.1-0.1-1-0.1l-11.1 0.1q-9.8 0-11.1 0-5.3 0-9.5 0-1-0.1-1.6 0.1-0.8 0.2-1 0.2-0.3 0-0.5-0.2zm84.2-25.1l-0.7 1.1q-0.4 0.6-1.5 2.5l-1.3 2-4.5 7.6-4.3 7.1-0.6 1.2q-0.9 1.9-1.7 2.7-0.7 0.8-1.7 0.8l-6.6 0.2q-0.9 0-1.3-0.4-0.4-0.4-1-1.5-0.2-0.4-0.9-1.4l-0.7-1-1.9-3q-1.9-3.3-2.3-4.1l-1.2-2-4.2-6.9-2.1-3.6-0.7-1q-0.6-0.8-0.6-1.4 0-0.3 0.3-0.5 0.7-0.2 1.8-0.2l1.4 0.1q0.3 0 1.2 0 1.2 0 1.8 0.3 0.7 0.5 1.3 1.5l1.7 3 4.7 8 3.2 5.5q0.1 0 0.4 0.5 0.3 0.6 0.5 0.9 0.7 1.6 1.5 2.6 0.1 0.1 0.3 0.1 0.1-0.1 0.4-0.3 0.2-0.3 0.5-0.7 0.8-1.1 2-3.3l0.3-0.7 0.9-1.5q1.8-3.1 2.1-3.7l6.5-10.8q0.7-1.3 1.4-1.5 0.1 0 0.4 0 0.2 0 1.2 0.2 0.5 0.2 1.4 0.2 1.1 0 2.2-0.4 0.4-0.1 0.4-0.1 0.3 0 0.4 0.3 0.1 0.6-0.4 1.6zm4.8 25.1l-0.1-0.1q-0.1-0.2-0.2-0.6-0.1-0.8-0.1-1 0-0.2 0.1-0.8 0-0.7 0-0.8 0.2-1.1 0.2-1.8 0-1.5 0-6.7 0-7.6 0-9.7 0-0.1 0-0.3 0-0.1-0.1-0.4 0-0.3 0-0.5-0.1-1-0.1-1.9 0-2.2 1.2-2.2l36.4 0.1q1 0 1.3 0.5 0.3 0.2 0.3 0.9l0.1 2.7q0 1-0.4 1.3-0.4 0.4-1.3 0.4-0.1 0-1.3-0.1-0.3-0.1-1.6-0.1h-1.7l-8.2-0.1h-16.1q-1 0-1.4 0.5-0.4 0.6-0.4 1.8l0.1 0.9q0 0.3 0 1.1-0.1 1.1 0.8 1.3 0.5 0.1 0.6 0.1 0.5 0 1.5-0.1 0.8-0.1 1.4-0.1l15-0.1h7.5l1.1-0.1q1.7-0.1 1.8-0.1 1.3 0 2 0.4 0.6 0.4 0.5 1.3l-0.3 3.1q0 0.3-0.2 0.5-0.1 0.2-0.5 0.2-9.2 0-27.5 0-1.2 0-2-0.2-0.3-0.2-0.7-0.2-0.6 0-0.9 0.5-0.2 0.5-0.2 1.3 0 0.7 0.1 1.6 0 0 0 0.4 0.1 0.5 0.1 0.7 0.1 0.3 0.4 0.6 0.3 0.2 0.8 0.2l29.4-0.1q0.9 0 1.2 0.2 0.3 0.2 0.3 0.8v1.1q-0.1 0.2 0.1 1.1 0.2 0.8 0.2 1.3 0 0.5-0.3 0.8-0.2 0.5-0.7 0.5-0.1 0-0.7-0.1-0.5-0.1-0.7-0.1h-1q-0.1-0.1-1-0.1l-11.1 0.1q-9.8 0-11.1 0-5.3 0-9.5 0-1-0.1-1.6 0.1-0.8 0.2-1 0.2-0.3 0-0.5-0.2zm45.9 0.1q-0.5 0-0.8-0.3-0.3-0.4-0.3-1.3 0-0.1 0.1-1.3 0-0.1 0-0.3 0-0.1 0-0.2 0.1-0.1 0.1-0.2 0-0.1 0-0.1 0-16.4-0.1-21.2 0-1.5 0.5-1.9 0.3-0.2 0.8-0.2 0.1 0 1.3 0.1 1 0.1 1.9 0.1 0.8 0 1 0 0.9-0.1 1-0.1h0.2q1.4 0.2 3.9 2.2 0.8 0.7 1.3 1 4.2 3 24.7 17.1 0.7 0.5 1.2 1 0.5 0.7 0.9 0.7 0.2 0 0.4-0.2 0.1-0.2 0.1-0.4v-0.3q0 0-0.1-0.2-0.1-0.2-0.1-0.4-0.2-0.3-0.2-0.9v-0.5q0.2-3.8 0.2-7.7l-0.1-9.3q0-0.3-0.1-0.8 0-0.5 0-0.7 0-0.7 0.9-0.7 0 0 0.1 0 0.1 0 0.2 0.1 0.2 0 0.4 0 1.2 0.1 2 0.1 0.8 0 2.1-0.2 0.4 0 0.7 0 1 0 1 1l-0.1 0.7q-0.3 1.7-0.3 4.2 0 0.4 0 2.9 0.1 2.5 0.1 2.8l0.1 3.8q0 6.8 0 7.6v1.9q0 0.1 0.1 0.7 0.2 0.6 0.2 0.7-0.2 0.8-1.3 0.8l-2.1-0.3q-1.9 0-2.2 0-1.4 0-3.4 0.1-1.5 0.2-3.2-1l-1.1-0.7-5.1-3.6q-3.7-2.5-11.9-7.9l-7.3-4.9q-0.2-0.1-0.7-0.7-0.5-0.6-0.7-0.6-0.3 0-0.3 1 0.2 4.3 0.2 9.2 0 0.2 0 2.3-0.1 2.1-0.1 2.5 0 2 0.3 3.3 0 0.1 0 0.2 0.1 0.2 0.1 0.2 0 0.1 0 0.1 0 0.6-0.9 0.6h-1.5q-1.5-0.1-1.6-0.1-1.2 0-2 0.2-0.2 0-0.5 0zm50.1-21.8q-0.1-0.3-0.1-0.9 0.2-2.6 0.2-3.4 0-0.4 0.1-0.5 0.2-0.2 0.8-0.2 12.3 0 37.3 0 0.3 0 0.5 0.2 0.1 0.1 0.1 0.4v4q0 0.6-0.3 0.8-0.1 0.2-0.7 0.2l-13.6-0.2q-1.4 0-1.8 0.6-0.3 0.3-0.3 1.3 0.1 14.4 0.2 18.5 0 0.4-0.1 0.5-0.2 0.2-0.5 0.2-1.9 0.2-3.1 0.2-1.1 0-1.5-0.1-1.4 0-1.9-0.7-0.2-0.3-0.2-1.2 0.3-13.6 0.4-17.5 0-1.3-0.6-1.7-0.3 0-0.8 0-8.2 0-12.3 0.2-1.2 0-1.5-0.4-0.1-0.1-0.3-0.3zm63.1 21.8q-0.1 0-0.2-0.1-0.1-0.1-0.2-0.1-0.2-0.2-0.2-0.5 0-0.3 0.2-0.9l0.2-0.8q0.1-0.3 0-0.7 0-0.4 0-0.5-0.2-0.5-0.2-1l0.1-3.6q-0.1-6.4-0.1-7.2v-1.9-6.5q0-0.1-0.1-0.5 0-0.4 0-0.7 0-1.2 0.7-1.7 0.6-0.5 1.8-0.5 0.7 0 1.9 0.2 1 0.2 1.6 0.2 0.6 0 6-0.1 5.6-0.1 6.2-0.1 4.4 0 8.3 0.3 9.4 0.7 15 4.8 1.4 1 1.5 1.1 2.9 2.8 2.9 7 0 2.4-1.2 4.5-2.5 4.7-9.9 7.2-0.4 0.2-1.9 0.5-0.3 0.1-1.9 0.4-4.7 1.1-13 1.1-3.6 0-4.6-0.1h-4.6q-4.2 0-7.4 0.3-0.7 0-0.9-0.1zm6.7-5.2h0.1q0.2 0.3 0.8 0.3h0.3q1.7-0.2 5.8-0.2h3.9q4.8 0 8.2-0.4 3.5-0.4 6.9-1.7 2.2-0.8 3.9-2.7 1.7-1.9 1.7-4 0-0.9-0.3-1.9-0.4-0.8-1-1.6-1.7-2.1-4.7-3.1-4.6-1.4-12.7-1.4h-4.9-6.7q-0.8 0-1.1 0.2-0.2 0.1-0.2 0.4 0 0.1 0.1 0.6 0 0.5 0 0.7 0 0.3 0 1-0.1 0.6-0.1 0.9 0 0.3 0 0.6 0 0.3 0 0.3 0.1 0.2 0.1 0.9v1.9 6.7q0 0.3-0.2 0.8-0.1 0.8-0.1 1 0 0.5 0.2 0.7zm44.7-6.8q0.4 0 2 0.2h0.9q0.2 0 0.6 0 0.4 0 0.6 0 0.9 0 1.1 0.6 0.6 2 1.2 2.9 0.5 1 1.5 1.9 2.7 2.2 6.8 2.2 2.4 0 4.5-0.8 2.1-0.9 3.4-2.5 1.5-1.9 1.5-4.6 0.1-3 0.1-11.1 0-0.4-0.1-1v-0.9l-0.1-1.1q0-1 1-1 0.2 0 1.7 0.1 0.9 0.1 1.7 0.1 0.7 0 1.5-0.1 0.8-0.1 0.9-0.1 0.7 0.2 0.7 1.4 0 0.3-0.2 2.2-0.1 2.5-0.1 2.8v3.9l0.1 3.2q0 2.3-0.3 3.6-0.7 3.2-2.7 5.7-2.3 2.6-5.8 4-3.5 1.4-7.4 1.4-5.3 0-9.5-2.3-1.1-0.7-1.5-1.1l-1.5-1.1q-0.4-0.4-1.3-1.4-2.3-2.7-3-6v-0.4q0-0.3 0.2-0.4 0.5-0.3 1.5-0.3zm55.3-2.3l0.2-0.2q0.2-0.2 0.7-0.2 0.1 0 0.7 0.1 0.8 0.2 2.7 0.2h32.3q1.4 0 2.2-0.2 0.4-0.1 0.8-0.1h0.2q0.6 0.1 0.7 0.6 0.1 0.2-0.1 0.7-0.2 0.5-0.2 0.6 0 0.1 0.2 0.6 0.2 0.5 0.1 0.7-0.1 0.7-1.5 0.6-2.5-0.2-7.6-0.2-19.7 0-29.6 0l-0.6 0.1q-1 0-1-0.9 0-0.2-0.2-0.8-0.1-0.7-0.1-1 0-0.4 0.1-0.6z"/></svg>